:FULLY-SPECIFIED
:FORCE-ALL-JOINTS-BE-3DOF
:DEGREES
68
root 6.9578 16.6856 -27.2269 -0.0851487 3.32889 1.18017
lfemur -13.3228 7.75787 -20.9429
ltibia 35.6608 0 0
lfoot -28.7723 -3.97947 0
ltoes 35.29 0 0
rfemur -58.4641 -11.7516 37.8356
rtibia 63.0341 0 0
rfoot -7.19763 7.50286 0
rtoes -6.69427 0 0
lowerback 6.58199 0.210006 -6.88213
upperback 1.32571 -0.362764 0.587731
thorax -2.19501 -0.113138 5.03744
lowerneck -11.0893 -1.50948 0.763024
upperneck -0.602686 -2.13491 0.95707
head 1.68998 -1.02661 0.0987141
lclavicle -6.49542e-14 -1.35156e-14 0
lhumerus -41.4908 -16.5743 94.826
lradius 43.4262 0 0
lwrist 9.97204 0 0
lhand -1.40762 4.58422 0
lfingers 7.12502 0 0
lthumb 24.2013 32.6569 0
rclavicle -6.49542e-14 -1.35156e-14 0
rhumerus -44.5321 -15.4474 -72.276
rradius 61.0407 0 0
rwrist -13.8485 0 0
rhand -26.1439 -24.2542 0
rfingers 7.12502 0 0
rthumb 0.406647 -54.2279 0
69
root 6.97211 16.6822 -27.21 -0.270411 3.45769 1.25385
lfemur -13.1925 7.86575 -20.9494
ltibia 35.6709 0 0
lfoot -28.5789 -4.14552 0
ltoes 35.2215 0 0
rfemur -59.2442 -11.9921 38.2088
rtibia 63.592 0 0
rfoot -6.73453 7.85685 0
rtoes -7.2614 0 0
lowerback 6.77263 0.141341 -6.92105
upperback 1.40347 -0.469715 0.53957
thorax -2.2051 -0.167939 5.01963
lowerneck -11.1143 -1.49441 0.738103
upperneck -0.586536 -2.11366 1.00335
head 1.7006 -1.01458 0.118421
lclavicle -6.38748e-14 -1.29194e-14 0
lhumerus -41.4801 -16.6953 94.7416
lradius 43.5974 0 0
lwrist 10.1187 0 0
lhand -1.20327 4.62553 0
lfingers 7.12502 0 0
lthumb 24.3969 32.6702 0
rclavicle -6.38748e-14 -1.29194e-14 0
rhumerus -44.5432 -15.6657 -72.0231
rradius 61.4288 0 0
rwrist -14.3161 0 0
rhand -26.1871 -24.292 0
rfingers 7.12502 0 0
rthumb 0.364914 -54.2659 0
70
root 6.98644 16.6789 -27.1931 -0.455767 3.5866 1.32755
lfemur -13.0621 7.9737 -20.9558
ltibia 35.681 0 0
lfoot -28.3855 -4.3117 0
ltoes 35.153 0 0
rfemur -60.0247 -12.2327 38.5823
rtibia 64.1503 0 0
rfoot -6.27094 8.21091 0
rtoes -7.82835 0 0
lowerback 6.9634 0.0726293 -6.95999
upperback 1.48126 -0.576735 0.491395
thorax -2.21521 -0.222774 5.00183
lowerneck -11.1392 -1.47934 0.713162
upperneck -0.570377 -2.09241 1.04965
head 1.71123 -1.00255 0.138138
lclavicle -6.27908e-14 -1.23236e-14 0
lhumerus -41.4692 -16.8165 94.6572
lradius 43.7687 0 0
lwrist 10.2654 0 0
lhand -0.998753 4.66707 0
lfingers 7.12502 0 0
lthumb 24.5928 32.6837 0
rclavicle -6.27908e-14 -1.23236e-14 0
rhumerus -44.5544 -15.8842 -71.77
rradius 61.8172 0 0
rwrist -14.7839 0 0
rhand -26.2305 -24.3301 0
rfingers 7.12502 0 0
rthumb 0.323014 -54.304 0
71
root 7.00077 16.6756 -27.1762 -0.641168 3.71559 1.40125
lfemur -12.9317 8.08169 -20.9622
ltibia 35.6912 0 0
lfoot -28.192 -4.47797 0
ltoes 35.0845 0 0
rfemur -60.8055 -12.4733 38.9557
rtibia 64.7089 0 0
rfoot -5.80697 8.56494 0
rtoes -8.39494 0 0
lowerback 7.15424 0.00389 -6.99894
upperback 1.55908 -0.683796 0.443219
thorax -2.22534 -0.277629 4.98404
lowerneck -11.1642 -1.46427 0.688209
upperneck -0.554213 -2.07116 1.09597
head 1.72186 -0.990525 0.157862
lclavicle -6.17025e-14 -1.17283e-14 0
lhumerus -41.4584 -16.9377 94.5728
lradius 43.94 0 0
lwrist 10.4121 0 0
lhand -0.794119 4.70883 0
lfingers 7.12502 0 0
lthumb 24.7887 32.6975 0
rclavicle -6.17025e-14 -1.17283e-14 0
rhumerus -44.5655 -16.1027 -71.5168
rradius 62.2056 0 0
rwrist -15.2518 0 0
rhand -26.2741 -24.3682 0
rfingers 7.12502 0 0
rthumb 0.280951 -54.3423 0
72
root 7.0151 16.6722 -27.1593 -0.826561 3.84463 1.47493
lfemur -12.8014 8.18969 -20.9686
ltibia 35.7014 0 0
lfoot -27.9985 -4.64428 0
ltoes 35.016 0 0
rfemur -61.5863 -12.714 39.3292
rtibia 65.2676 0 0
rfoot -5.34275 8.91884 0
rtoes -8.96102 0 0
lowerback 7.3451 -0.0648593 -7.03788
upperback 1.63688 -0.79087 0.395055
thorax -2.23549 -0.332489 4.96625
lowerneck -11.1891 -1.44921 0.66325
upperneck -0.538049 -2.04992 1.14229
head 1.7325 -0.978501 0.177586
lclavicle -6.06102e-14 -1.11339e-14 0
lhumerus -41.4475 -17.059 94.4884
lradius 44.1112 0 0
lwrist 10.5588 0 0
lhand -0.589424 4.75077 0
lfingers 7.12502 0 0
lthumb 24.9847 32.7114 0
rclavicle -6.06102e-14 -1.11339e-14 0
rhumerus -44.5767 -16.3213 -71.2636
rradius 62.594 0 0
rwrist -15.7196 0 0
rhand -26.3178 -24.4065 0
rfingers 7.12502 0 0
rthumb 0.238732 -54.3807 0
73
root 7.02942 16.6689 -27.1424 -1.0119 3.97369 1.54857
lfemur -12.6711 8.29768 -20.9749
ltibia 35.7117 0 0
lfoot -27.8051 -4.81058 0
ltoes 34.9475 0 0
rfemur -62.3669 -12.9547 39.7025
rtibia 65.8264 0 0
rfoot -4.87837 9.27251 0
rtoes -9.5264 0 0
lowerback 7.53593 -0.133601 -7.07682
upperback 1.71466 -0.897928 0.346914
thorax -2.24566 -0.387339 4.94848
lowerneck -11.2141 -1.43416 0.638293
upperneck -0.521888 -2.0287 1.1886
head 1.74313 -0.966485 0.197307
lclavicle -5.95142e-14 -1.05405e-14 0
lhumerus -41.4367 -17.1802 94.4041
lradius 44.2824 0 0
lwrist 10.7054 0 0
lhand -0.384724 4.79289 0
lfingers 7.12502 0 0
lthumb 25.1807 32.7254 0
rclavicle -5.95142e-14 -1.05405e-14 0
rhumerus -44.5878 -16.5397 -71.0105
rradius 62.9823 0 0
rwrist -16.1872 0 0
rhand -26.3616 -24.4449 0
rfingers 7.12502 0 0
rthumb 0.196361 -54.4192 0
74
root 7.04373 16.6656 -27.1255 -1.19713 4.10272 1.62214
lfemur -12.541 8.40561 -20.9812
ltibia 35.7219 0 0
lfoot -27.6118 -4.97683 0
ltoes 34.8791 0 0
rfemur -63.1471 -13.1952 40.0757
rtibia 66.3849 0 0
rfoot -4.41396 9.62585 0
rtoes -10.0909 0 0
lowerback 7.72667 -0.202316 -7.11573
upperback 1.79239 -1.00494 0.298809
thorax -2.25584 -0.442166 4.93073
lowerneck -11.239 -1.41912 0.613342
upperneck -0.505737 -2.00749 1.23488
head 1.75375 -0.954479 0.217018
lclavicle -5.8415e-14 -9.94822e-15 0
lhumerus -41.4257 -17.3015 94.3198
lradius 44.4535 0 0
lwrist 10.8519 0 0
lhand -0.180073 4.83517 0
lfingers 7.12502 0 0
lthumb 25.3767 32.7397 0
rclavicle -5.8415e-14 -9.94822e-15 0
rhumerus -44.599 -16.7581 -70.7576
rradius 63.3705 0 0
rwrist -16.6546 0 0
rhand -26.4057 -24.4834 0
rfingers 7.12502 0 0
rthumb 0.153844 -54.4578 0
